<svg xmlns="http://www.w3.org/2000/svg" viewBox="0 0 64 64">
  <path d="M32 4 L56 14 L56 36 C56 50 32 60 32 60
           C32 60 8 50 8 36 L8 14 Z"
        fill="#1e3a5f" stroke="#3b82f6" stroke-width="2"/>
  <path d="M32 8 L52 17 L52 36 C52 47 32 56 32 56
           C32 56 12 47 12 36 L12 17 Z"
        fill="#0f2744"/>
  <text x="32" y="38" text-anchor="middle"
        font-family="system-ui,sans-serif"
        font-size="20" font-weight="700"
        fill="#60a5fa" letter-spacing="-1">CD</text>
  <rect x="12" y="41" width="40" height="1.5"
        fill="#3b82f6" opacity="0.5"/>
  <circle cx="16" cy="41.75" r="2" fill="#60a5fa"/>
  <circle cx="48" cy="41.75" r="2" fill="#60a5fa"/>
  <path d="M18 41.75 L24 38 L28 44 L32 36
           L36 44 L40 38 L46 41.75"
        fill="none" stroke="#60a5fa"
        stroke-width="1.5"
        stroke-linecap="round"
        stroke-linejoin="round"/>
</svg>
